<svg width="66" height="28" viewBox="0 0 66 28" fill="none" xmlns="http://www.w3.org/2000/svg">
<path d="M0.667 17.814L3.634 17.147C3.703 18.527 4.761 19.654 6.348 19.654C7.774 19.654 8.924 18.711 8.924 17.216C8.924 15.514 7.659 14.709 6.279 14.709C5.267 14.709 4.462 15.169 3.979 15.721C3.68 15.606 1.403 14.824 1.081 14.732L2.852 7.073H11.27V9.81H5.014L4.278 13.099C4.922 12.501 5.98 12.179 6.969 12.179C9.959 12.179 12.075 13.973 12.075 17.17C12.075 19.953 9.936 22.368 6.348 22.368C3.105 22.368 0.851 20.16 0.667 17.814ZM13.9827 20.068C13.9827 18.918 14.9257 17.975 16.0757 17.975C17.2487 17.975 18.1917 18.918 18.1917 20.068C18.1917 21.218 17.2487 22.161 16.0757 22.161C14.9257 22.161 13.9827 21.218 13.9827 20.068ZM23.3211 14.548C23.3211 16.112 23.5511 17.446 24.1261 18.343C24.5861 19.079 25.2991 19.562 26.3801 19.562C27.4841 19.562 28.1511 19.079 28.6111 18.343C29.2091 17.446 29.4391 16.112 29.4391 14.548C29.4391 12.984 29.2091 11.65 28.6111 10.753C28.1511 10.017 27.4841 9.534 26.3801 9.534C25.2991 9.534 24.5861 10.017 24.1261 10.753C23.5511 11.65 23.3211 12.984 23.3211 14.548ZM20.1471 14.548C20.1471 12.639 20.4461 10.776 21.4581 9.235C22.4471 7.763 24.0571 6.728 26.3801 6.728C28.7031 6.728 30.3131 7.763 31.2791 9.235C32.2911 10.776 32.6131 12.639 32.6131 14.548C32.6131 16.457 32.2911 18.32 31.2791 19.861C30.3131 21.333 28.7031 22.368 26.3801 22.368C24.0571 22.368 22.4471 21.333 21.4581 19.861C20.4461 18.32 20.1471 16.457 20.1471 14.548Z" fill="#FF5722"/>
<path d="M59.9184 16.3201C59.6594 16.5711 59.5404 16.9341 59.5994 17.2901L60.4884 22.2101C60.5634 22.6271 60.3874 23.0491 60.0384 23.2901C59.6964 23.5401 59.2414 23.5701 58.8684 23.3701L54.4394 21.0601C54.2854 20.9781 54.1144 20.9341 53.9394 20.9291H53.6684C53.5744 20.9431 53.4824 20.9731 53.3984 21.0191L48.9684 23.3401C48.7494 23.4501 48.5014 23.4891 48.2584 23.4501C47.6664 23.3381 47.2714 22.7741 47.3684 22.1791L48.2584 17.2591C48.3174 16.9001 48.1984 16.5351 47.9394 16.2801L44.3284 12.7801C44.0264 12.4871 43.9214 12.0471 44.0594 11.6501C44.1934 11.2541 44.5354 10.9651 44.9484 10.9001L49.9184 10.1791C50.2964 10.1401 50.6284 9.91012 50.7984 9.57012L52.9884 5.08012C53.0404 4.98012 53.1074 4.88812 53.1884 4.81012L53.2784 4.74012C53.3254 4.68812 53.3794 4.64512 53.4394 4.61012L53.5484 4.57012L53.7184 4.50012H54.1394C54.5154 4.53912 54.8464 4.76412 55.0194 5.10012L57.2384 9.57012C57.3984 9.89712 57.7094 10.1241 58.0684 10.1791L63.0384 10.9001C63.4584 10.9601 63.8094 11.2501 63.9484 11.6501C64.0794 12.0511 63.9664 12.4911 63.6584 12.7801L59.9184 16.3201Z" fill="#FF5722"/>
</svg>
