<svg width="66" height="28" viewBox="0 0 66 28" fill="none" xmlns="http://www.w3.org/2000/svg">
<path d="M0.736 18.803V15.491L7.015 7.073H10.925V16.089H13.386V18.803H10.925V22H7.797V18.803H0.736ZM7.797 16.089V10.385L3.542 16.089H7.797ZM15.1956 20.068C15.1956 18.918 16.1386 17.975 17.2886 17.975C18.4616 17.975 19.4046 18.918 19.4046 20.068C19.4046 21.218 18.4616 22.161 17.2886 22.161C16.1386 22.161 15.1956 21.218 15.1956 20.068ZM27.3084 13.191C28.7114 13.168 29.5164 12.294 29.5164 11.236C29.5164 10.247 28.7114 9.35 27.3084 9.35C25.9284 9.35 25.1234 10.247 25.1234 11.236C25.1234 12.294 25.9284 13.168 27.3084 13.191ZM27.3084 19.723C28.9644 19.723 29.8384 18.711 29.8384 17.653C29.8384 16.572 28.9874 15.537 27.3084 15.537C25.6294 15.537 24.8014 16.572 24.8014 17.653C24.8014 18.711 25.6754 19.723 27.3084 19.723ZM27.3084 22.345C23.9044 22.345 21.6734 20.551 21.6734 17.975C21.6734 16.365 22.7314 14.939 24.3184 14.341C22.8234 13.789 21.9724 12.34 21.9724 11.006C21.9724 8.499 24.2034 6.728 27.3084 6.728C30.4134 6.728 32.6444 8.499 32.6444 11.006C32.6444 12.317 31.8164 13.789 30.3214 14.341C31.8854 14.916 32.9434 16.365 32.9434 17.975C32.9434 20.551 30.7124 22.345 27.3084 22.345Z" fill="#FF5722"/>
<path d="M59.9184 16.3201C59.6594 16.5711 59.5404 16.9341 59.5994 17.2901L60.4884 22.2101C60.5634 22.6271 60.3874 23.0491 60.0384 23.2901C59.6964 23.5401 59.2414 23.5701 58.8684 23.3701L54.4394 21.0601C54.2854 20.9781 54.1144 20.9341 53.9394 20.9291H53.6684C53.5744 20.9431 53.4824 20.9731 53.3984 21.0191L48.9684 23.3401C48.7494 23.4501 48.5014 23.4891 48.2584 23.4501C47.6664 23.3381 47.2714 22.7741 47.3684 22.1791L48.2584 17.2591C48.3174 16.9001 48.1984 16.5351 47.9394 16.2801L44.3284 12.7801C44.0264 12.4871 43.9214 12.0471 44.0594 11.6501C44.1934 11.2541 44.5354 10.9651 44.9484 10.9001L49.9184 10.1791C50.2964 10.1401 50.6284 9.91012 50.7984 9.57012L52.9884 5.08012C53.0404 4.98012 53.1074 4.88812 53.1884 4.81012L53.2784 4.74012C53.3254 4.68812 53.3794 4.64512 53.4394 4.61012L53.5484 4.57012L53.7184 4.50012H54.1394C54.5154 4.53912 54.8464 4.76412 55.0194 5.10012L57.2384 9.57012C57.3984 9.89712 57.7094 10.1241 58.0684 10.1791L63.0384 10.9001C63.4584 10.9601 63.8094 11.2501 63.9484 11.6501C64.0794 12.0511 63.9664 12.4911 63.6584 12.7801L59.9184 16.3201Z" fill="#FF5722"/>
</svg>
