<svg width="160" height="32" viewBox="0 0 160 32" fill="none" xmlns="http://www.w3.org/2000/svg">
<path d="M16 0C7.1808 0 0 7.1808 0 16C0 24.8192 7.1808 32 16 32C24.8192 32 32 24.8256 32 16C32 7.1744 24.8256 0 16 0ZM20.4352 9.4912C20.4352 9.6256 20.3264 9.7344 20.192 9.7344H18.2656C17.792 9.7344 17.408 10.1184 17.408 10.592V12.608H20.1472C20.1536 12.608 20.16 12.608 20.1664 12.608C20.3008 12.6208 20.3968 12.736 20.384 12.8704L20.1408 15.712C20.128 15.84 20.0256 15.936 19.8976 15.936H17.4016V25.3632C17.4016 25.4976 17.2928 25.6064 17.1584 25.6064H13.7152C13.5808 25.6064 13.472 25.4976 13.472 25.3632V16.0768V15.9232H11.7504C11.616 15.9232 11.5072 15.8144 11.5072 15.68V12.8384C11.5072 12.704 11.616 12.5952 11.7504 12.5952H13.472V9.856C13.472 7.9488 15.0208 6.4 16.928 6.4H20.1792C20.3136 6.4 20.4224 6.5088 20.4224 6.6432V9.4912H20.4352Z" fill="#5D50C6"/>
<path d="M80 32C88.8366 32 96 24.8366 96 16C96 7.16344 88.8366 0 80 0C71.1634 0 64 7.16344 64 16C64 24.8366 71.1634 32 80 32Z" fill="#5D50C6"/>
<path d="M89.8005 11.4985C89.1149 11.8026 88.3773 12.0082 87.6038 12.1C88.3935 11.6269 88.9996 10.8782 89.2857 9.98459C88.5467 10.423 87.7279 10.741 86.8571 10.9124C86.1595 10.1694 85.1655 9.70508 84.0648 9.70508C81.9531 9.70508 80.2404 11.4178 80.2404 13.5295C80.2404 13.8293 80.2743 14.1211 80.3399 14.4011C77.1615 14.2417 74.3433 12.7192 72.4569 10.4047C72.1277 10.9694 71.9389 11.6269 71.9389 12.3276C71.9389 13.6542 72.6146 14.8253 73.6402 15.5109C73.0136 15.4912 72.4235 15.3193 71.9081 15.032C71.9078 15.0483 71.9078 15.0646 71.9078 15.0805C71.9078 16.9336 73.2267 18.4792 74.9759 18.8303C74.6553 18.9181 74.3168 18.9646 73.9685 18.9646C73.7215 18.9646 73.4822 18.9409 73.2489 18.8964C73.7355 20.4155 75.1476 21.5213 76.8215 21.5523C75.5124 22.5783 73.8635 23.1895 72.0713 23.1895C71.7632 23.1895 71.458 23.1715 71.1594 23.1359C72.851 24.2214 74.8618 24.8543 77.0215 24.8543C84.056 24.8543 87.903 19.0268 87.903 13.9725C87.903 13.8068 87.8993 13.6416 87.8919 13.4779C88.6397 12.9388 89.288 12.2655 89.8005 11.4985Z" fill="#F1F2F2"/>
<path d="M144 32C152.837 32 160 24.8366 160 16C160 7.16344 152.837 0 144 0C135.163 0 128 7.16344 128 16C128 24.8366 135.163 32 144 32Z" fill="#5D50C6"/>
<path d="M148.8 8.2002H139.2C137.533 8.2002 136.2 9.53352 136.2 11.2002V20.8002C136.2 22.4669 137.533 23.8002 139.2 23.8002H148.8C150.467 23.8002 151.8 22.4669 151.8 20.8002V11.2002C151.8 9.53352 150.467 8.2002 148.8 8.2002ZM149.667 10.0002H150V12.6669H147.333V10.0002H149.667ZM141.8 14.4002C142.267 13.7335 143.133 13.2669 144 13.2669C144.867 13.2669 145.733 13.7335 146.2 14.4002C146.533 14.8669 146.733 15.4002 146.733 16.0002C146.733 17.5335 145.467 18.7335 144 18.7335C142.533 18.7335 141.267 17.5335 141.267 16.0002C141.267 15.4002 141.467 14.8669 141.8 14.4002ZM150.267 20.8002C150.267 21.6002 149.6 22.2669 148.8 22.2669H139.2C138.4 22.2669 137.733 21.6002 137.733 20.8002V14.4002H140.067C139.867 14.8669 139.733 15.4669 139.733 16.0002C139.733 18.3335 141.667 20.2669 144 20.2669C146.333 20.2669 148.267 18.3335 148.267 16.0002C148.267 15.4669 148.133 14.8669 147.933 14.4002H150.267L150.267 20.8002Z" fill="white"/>
</svg>
